# xmcd CD Database Entry
#
# Track frame offsets:
# 150
# 14065
# 28090
# 40960
# 53947
# 67835
# 81025
# 94179
# 108715
# 122960
# 137157
# 152435
# 166155
# 190609
# 204732
# 215687
# 228347
# 243634
# 257462
# 271985
# 283315
#
# Disc length: 3981 seconds
#
# Revision: 5
# Processed by: cddbd v1.4PL0 Copyright (c) Steve Scherf et al.
# Submitted via: tcd 2.0b
#
DISCID=340f8b15
DTITLE=Hemanta Mukherjee - Ki Gabo Ki Shonabo
DYEAR=1900
DGENRE=
TTITLE0=Keno Chokher Jale Bhijiye Dilem Naa (1962)
TTITLE1=Mon Mor Meghero Shonghi (1962)
TTITLE2=Aami Jwalbo Naa Mor Baataayaney (1962)
TTITLE3=Money Ki Didhaa Rekhey Geley Choley (1962)
TTITLE4=Aamaar Hriday Tomaar Aapan Haater (1962)
TTITLE5=Tui Pheley Eshechhish Kaarey (1962)
TTITLE6=Aaji Saratatapaney Prabhaat Swapaney (1964)
TTITLE7=Haai Go Byathaay Kothaa Jaai Dubey Jaai (1967)
TTITLE8=Deko Naa Amaare Deko Naa (1967)
TTITLE9=Deep Nibey Gechhey Mamo Nishithoshomirey (1967)
TTITLE10=Aamaar Khelaa Jakhon Chhilo Tomaar Shaney (1970)
TTITLE11=Aami Kaan Petey Roi (1971)
TTITLE12=Diner Sheshey Ghoomer Deshey (1971)
TTITLE13=Jadi Taare Naai Chini Go (1971)
TTITLE14=Mor Bhabanare Ki Haoaay Maataalo (1973)
TTITLE15=Ei Monihaar Aamaay Naahi Shaajey (1973)
TTITLE16=Ashrunadir Shudoor Paarey (1974)
TTITLE17=Ki Gaabo Aami Ki Shunaabo (1974)
TTITLE18=Shangshara Jabey Moro Kerey Loy (1975)
TTITLE19=Hey Madhabi Dwidhaa Keno (1977)
TTITLE20=Saghana Gahana Ratri (1977)
EXTD=
EXTT0=
EXTT1=
EXTT2=
EXTT3=
EXTT4=
EXTT5=
EXTT6=
EXTT7=
EXTT8=
EXTT9=
EXTT10=
EXTT11=
EXTT12=
EXTT13=
EXTT14=
EXTT15=
EXTT16=
EXTT17=
EXTT18=
EXTT19=
EXTT20=
PLAYORDER=
